<svg width="32" height="32" viewBox="0 0 32 32" fill="none" xmlns="http://www.w3.org/2000/svg">
<g clip-path="url(#clip0_2011_325)">
<rect x="0.5" y="0.5" width="31" height="31" rx="15.5" fill="white"/>
<rect x="0.5" y="0.5" width="31" height="31" rx="15.5" stroke="#2A97CB"/>
<path d="M16.5269 25.0572L16.5172 25.059L16.454 25.0904L16.4363 25.0939L16.4238 25.0904L16.3607 25.059C16.3512 25.056 16.3441 25.0575 16.3394 25.0635L16.3358 25.0724L16.3207 25.4561L16.3252 25.474L16.334 25.4857L16.4265 25.552L16.4398 25.5556L16.4505 25.552L16.5429 25.4857L16.5536 25.4713L16.5572 25.4561L16.542 25.0733C16.5397 25.0638 16.5346 25.0584 16.5269 25.0572ZM16.7625 24.9559L16.7509 24.9577L16.5865 25.041L16.5776 25.05L16.5749 25.0599L16.5909 25.4454L16.5954 25.4561L16.6025 25.4624L16.7812 25.5458C16.7924 25.5487 16.801 25.5464 16.8069 25.5386L16.8105 25.526L16.7803 24.9756C16.7773 24.9648 16.7714 24.9583 16.7625 24.9559ZM16.1269 24.9577C16.123 24.9553 16.1183 24.9545 16.1139 24.9555C16.1094 24.9565 16.1055 24.9592 16.1029 24.9631L16.0976 24.9756L16.0674 25.526C16.068 25.5368 16.073 25.544 16.0825 25.5476L16.0958 25.5458L16.2745 25.4624L16.2834 25.4552L16.2869 25.4454L16.302 25.0599L16.2994 25.0491L16.2905 25.0401L16.1269 24.9577Z" fill="#710000"/>
<path d="M18.0267 6C18.3998 6.0001 18.7634 6.11859 19.0661 6.33869C19.3687 6.5588 19.595 6.86935 19.7129 7.22637L20.1956 8.68941H23.1111C23.3469 8.68941 23.573 8.78385 23.7397 8.95198C23.9064 9.1201 24 9.34812 24 9.58587C24 9.82363 23.9064 10.0517 23.7397 10.2198C23.573 10.3879 23.3469 10.4823 23.1111 10.4823L23.1084 10.546L22.3378 21.4318C22.2897 22.1101 21.9886 22.7448 21.4951 23.2082C21.0017 23.6716 20.3525 23.9293 19.6782 23.9294H12.3218C11.6475 23.9293 10.9983 23.6716 10.5049 23.2082C10.0114 22.7448 9.71032 22.1101 9.66222 21.4318L8.89156 10.5451L8.88889 10.4823C8.65314 10.4823 8.42705 10.3879 8.26035 10.2198C8.09365 10.0517 8 9.82363 8 9.58587C8 9.34812 8.09365 9.1201 8.26035 8.95198C8.42705 8.78385 8.65314 8.68941 8.88889 8.68941H11.8044L12.2871 7.22637C12.4051 6.86921 12.6315 6.55855 12.9343 6.33843C13.2371 6.11831 13.601 5.99991 13.9742 6H18.0267ZM21.3307 10.4823H10.6693L11.4356 21.3036C11.4515 21.5297 11.5518 21.7413 11.7162 21.8958C11.8807 22.0504 12.097 22.1363 12.3218 22.1364H19.6782C19.903 22.1363 20.1193 22.0504 20.2838 21.8958C20.4482 21.7413 20.5485 21.5297 20.5644 21.3036L21.3307 10.4823ZM14.2222 13.1717C14.4399 13.1718 14.6501 13.2524 14.8128 13.3983C14.9755 13.5442 15.0794 13.7453 15.1049 13.9633L15.1111 14.0682V18.5506C15.1109 18.7791 15.0241 18.9988 14.8686 19.165C14.7131 19.3311 14.5005 19.4311 14.2743 19.4445C14.0481 19.4579 13.8254 19.3837 13.6517 19.237C13.478 19.0904 13.3663 18.8823 13.3396 18.6554L13.3333 18.5506V14.0682C13.3333 13.8305 13.427 13.6024 13.5937 13.4343C13.7604 13.2662 13.9865 13.1717 14.2222 13.1717ZM17.7778 13.1717C18.0135 13.1717 18.2396 13.2662 18.4063 13.4343C18.573 13.6024 18.6667 13.8305 18.6667 14.0682V18.5506C18.6667 18.7883 18.573 19.0163 18.4063 19.1845C18.2396 19.3526 18.0135 19.447 17.7778 19.447C17.542 19.447 17.3159 19.3526 17.1492 19.1845C16.9825 19.0163 16.8889 18.7883 16.8889 18.5506V14.0682C16.8889 13.8305 16.9825 13.6024 17.1492 13.4343C17.3159 13.2662 17.542 13.1717 17.7778 13.1717ZM18.0267 7.79294H13.9733L13.6773 8.68941H18.3227L18.0267 7.79294Z" fill="#710000"/>
</g>
<defs>
<clipPath id="clip0_2011_325">
<rect width="32" height="32" fill="white"/>
</clipPath>
</defs>
</svg>
