<svg width="258" height="156" viewBox="0 0 258 156" fill="none" xmlns="http://www.w3.org/2000/svg">
<rect x="0.5" y="0.5" width="257" height="155" rx="11.5" stroke="url(#paint0_linear_2001_1011)"/>
<path d="M74.4052 66.0832C84.4558 66.0832 92.6035 58.0803 92.6035 48.2082C92.6035 38.3362 84.4558 30.3333 74.4052 30.3333C64.3546 30.3333 56.207 38.3362 56.207 48.2082C56.207 58.0803 64.3546 66.0832 74.4052 66.0832Z" fill="#9AAAAB"/>
<path d="M113.345 98.5023C112.064 100.18 109.539 100.18 108.258 98.5023L95.1468 81.3307C93.8661 79.6534 91.3408 79.6534 90.0601 81.3307L60.1333 120.524C58.5252 122.63 60.0269 125.666 62.6766 125.666H195.323C197.973 125.666 199.475 122.63 197.867 120.524L149.741 57.4974C148.461 55.8201 145.935 55.8201 144.655 57.4974L113.345 98.5023Z" fill="#9AAAAB"/>
<defs>
<linearGradient id="paint0_linear_2001_1011" x1="129" y1="0" x2="129" y2="156" gradientUnits="userSpaceOnUse">
<stop stop-color="#2A97CB"/>
<stop offset="1" stop-color="#154B65"/>
</linearGradient>
</defs>
</svg>
