<svg width="22" height="22" viewBox="0 0 22 22" fill="none" xmlns="http://www.w3.org/2000/svg">
<path d="M2 11C5.6 2.99999 16.4 2.99999 20 11" stroke="black" stroke-width="2" stroke-linecap="round" stroke-linejoin="round"/>
<path d="M11 15C10.606 15 10.2159 14.9224 9.85195 14.7717C9.48797 14.6209 9.15726 14.3999 8.87868 14.1213C8.6001 13.8428 8.37913 13.512 8.22836 13.1481C8.0776 12.7841 8 12.394 8 12C8 11.606 8.0776 11.2159 8.22836 10.852C8.37913 10.488 8.6001 10.1573 8.87868 9.87868C9.15726 9.60011 9.48797 9.37913 9.85195 9.22836C10.2159 9.0776 10.606 9 11 9C11.7956 9 12.5587 9.31607 13.1213 9.87868C13.6839 10.4413 14 11.2044 14 12C14 12.7957 13.6839 13.5587 13.1213 14.1213C12.5587 14.684 11.7956 15 11 15Z" fill="black" stroke="black" stroke-width="2" stroke-linecap="round" stroke-linejoin="round"/>
</svg>
