<svg width="16" height="20" viewBox="0 0 16 20" fill="none" xmlns="http://www.w3.org/2000/svg">
<path d="M8.52694 19.0572L8.51716 19.059L8.45405 19.0904L8.43627 19.0939L8.42383 19.0904L8.36072 19.059C8.35123 19.056 8.34412 19.0575 8.33938 19.0635L8.33583 19.0724L8.32072 19.4561L8.32516 19.474L8.33405 19.4857L8.42649 19.552L8.43983 19.5556L8.45049 19.552L8.54294 19.4857L8.5536 19.4713L8.55716 19.4561L8.54205 19.0733C8.53968 19.0638 8.53464 19.0584 8.52694 19.0572ZM8.76249 18.9559L8.75094 18.9577L8.58649 19.041L8.5776 19.05L8.57494 19.0599L8.59094 19.4454L8.59538 19.4561L8.60249 19.4624L8.78116 19.5458C8.79242 19.5487 8.80101 19.5464 8.80694 19.5386L8.81049 19.526L8.78027 18.9756C8.77731 18.9648 8.77138 18.9583 8.76249 18.9559ZM8.12694 18.9577C8.12302 18.9553 8.11834 18.9545 8.11387 18.9555C8.1094 18.9565 8.10548 18.9592 8.10294 18.9631L8.0976 18.9756L8.06738 19.526C8.06798 19.5368 8.07301 19.544 8.08249 19.5476L8.09583 19.5458L8.27449 19.4624L8.28338 19.4552L8.28694 19.4454L8.30205 19.0599L8.29938 19.0491L8.29049 19.0401L8.12694 18.9577Z" fill="#710000"/>
<path d="M10.0267 5.20121e-08C10.3998 9.75894e-05 10.7634 0.11859 11.0661 0.338693C11.3687 0.558796 11.595 0.869351 11.7129 1.22637L12.1956 2.68941H15.1111C15.3469 2.68941 15.573 2.78385 15.7397 2.95198C15.9064 3.1201 16 3.34812 16 3.58587C16 3.82363 15.9064 4.05165 15.7397 4.21977C15.573 4.38789 15.3469 4.48234 15.1111 4.48234L15.1084 4.54599L14.3378 15.4318C14.2897 16.1101 13.9886 16.7448 13.4951 17.2082C13.0017 17.6716 12.3525 17.9293 11.6782 17.9294H4.32178C3.64752 17.9293 2.99832 17.6716 2.50486 17.2082C2.0114 16.7448 1.71032 16.1101 1.66222 15.4318L0.891555 4.5451L0.888889 4.48234C0.653141 4.48234 0.427048 4.38789 0.260349 4.21977C0.0936505 4.05165 0 3.82363 0 3.58587C0 3.34812 0.0936505 3.1201 0.260349 2.95198C0.427048 2.78385 0.653141 2.68941 0.888889 2.68941H3.80444L4.28711 1.22637C4.40506 0.869205 4.6315 0.558546 4.93431 0.33843C5.23712 0.118314 5.60095 -9.05982e-05 5.97422 5.20121e-08H10.0267ZM13.3307 4.48234H2.66933L3.43556 15.3036C3.45151 15.5297 3.5518 15.7413 3.71623 15.8958C3.88066 16.0504 4.09703 16.1363 4.32178 16.1364H11.6782C11.903 16.1363 12.1193 16.0504 12.2838 15.8958C12.4482 15.7413 12.5485 15.5297 12.5644 15.3036L13.3307 4.48234ZM6.22222 7.17175C6.43994 7.17178 6.65008 7.25239 6.81278 7.3983C6.97547 7.54421 7.07942 7.74526 7.10489 7.96333L7.11111 8.06822V12.5506C7.11086 12.7791 7.02411 12.9988 6.86858 13.165C6.71305 13.3311 6.50049 13.4311 6.27432 13.4445C6.04815 13.4579 5.82544 13.3837 5.6517 13.237C5.47797 13.0904 5.36631 12.8823 5.33956 12.6554L5.33333 12.5506V8.06822C5.33333 7.83046 5.42698 7.60244 5.59368 7.43432C5.76038 7.2662 5.98647 7.17175 6.22222 7.17175ZM9.77778 7.17175C10.0135 7.17175 10.2396 7.2662 10.4063 7.43432C10.573 7.60244 10.6667 7.83046 10.6667 8.06822V12.5506C10.6667 12.7883 10.573 13.0163 10.4063 13.1845C10.2396 13.3526 10.0135 13.447 9.77778 13.447C9.54203 13.447 9.31594 13.3526 9.14924 13.1845C8.98254 13.0163 8.88889 12.7883 8.88889 12.5506V8.06822C8.88889 7.83046 8.98254 7.60244 9.14924 7.43432C9.31594 7.2662 9.54203 7.17175 9.77778 7.17175ZM10.0267 1.79294H5.97333L5.67733 2.68941H10.3227L10.0267 1.79294Z" fill="#710000"/>
</svg>
